<?xml version="1.0" standalone="no"?>
<!DOCTYPE svg PUBLIC "-//W3C//DTD SVG 20010904//EN"
 "http://www.w3.org/TR/2001/REC-SVG-20010904/DTD/svg10.dtd">
<svg version="1.0" xmlns="http://www.w3.org/2000/svg"
 width="29.000000pt" height="42.000000pt" viewBox="0 0 363.000000 443.000000"
 preserveAspectRatio="xMidYMid meet">

<g transform="translate(0.000000,443.000000) scale(0.100000,-0.100000)"
fill="#000000" stroke="none">
<path d="M1655 4400 c-816 -6 -765 -1 -808 -70 -21 -33 -22 -48 -25 -277 l-3
-243 155 0 155 0 3 138 3 137 563 3 562 2 0 -328 0 -327 193 -193 192 -192
328 0 327 0 0 -965 0 -965 -140 0 -140 0 0 -156 0 -155 243 3 c228 3 244 4
277 25 75 47 69 -56 70 1252 1 683 -3 1178 -8 1187 -5 9 -256 264 -558 565
-554 554 -577 575 -634 567 -8 -2 -348 -5 -755 -8z m1172 -782 c134 -134 243
-246 243 -251 0 -4 -111 -6 -247 -5 l-248 3 -3 248 c-1 136 1 247 5 247 4 0
117 -109 250 -242z"/>
<path d="M110 3588 c-24 -13 -53 -36 -64 -51 l-21 -28 0 -1699 0 -1699 21 -27
c11 -15 33 -37 48 -48 27 -21 30 -21 1326 -21 1295 0 1299 0 1327 21 15 11 38
40 51 64 l22 44 0 1148 c0 962 -2 1154 -14 1181 -18 41 -1091 1112 -1129 1126
-19 7 -277 11 -776 11 l-747 0 -44 -22z m1350 -762 l0 -463 23 -34 c12 -18 38
-44 56 -56 l34 -23 463 0 464 0 0 -960 0 -960 -1080 0 -1080 0 0 1480 0 1480
560 0 560 0 0 -464z m570 -11 l245 -245 -248 0 -247 0 0 245 c0 135 1 245 3
245 1 0 112 -110 247 -245z"/>
</g>
</svg>
